# xmcd
#
# Track frame offsets: 
#        150
#        14965
#        27097
#        42060
#        56786
#        68793
#        82618
#        96479
#        111818
#        126166
#        140250
#        154492
#        170262
#        185893
#        201409
#        213417
#        233567
#        250541
#        262894
#        273672
#        286152
#        302944
#        323534
#        342116
#
# Disc length: 4785 seconds
#
# Revision: 0
# Processed by: cddbd v1.5.2PL0 Copyright (c) Steve Scherf et al.
# Submitted via: ExactAudioCopy v1.3
#
DISCID=5b12af18
DTITLE=Various Artist - The Glory Days Of Aussie Pub Rock VOL 2
DYEAR=2017
DGENRE=Rock
TTITLE0=Cold Chisel - You Got Nothin I Want
TTITLE1=The Angels - Shadow Boxer
TTITLE2=Divinyls - Ill Make You Happy
TTITLE3=Split Enz - I See Red
TTITLE4=The Sports - Strangers On A Train
TTITLE5=Mental as Anything - Come Around
TTITLE6=Sunnyboys - Happy Man 
TTITLE7=Choirboys - Boys Will Be Boys
TTITLE8=Rose Tattoo - One Of The Boys
TTITLE9=Dave Warner - From The Suburbs-Nothing To Lose
TTITLE10=Skyhooks - Over The Border
TTITLE11=The Motivators - After The Fall
TTITLE12=The Ferrets - This Night
TTITLE13=Models - Atlantic Romantic
TTITLE14=The Aliens - Follow That Girl
TTITLE15=The Radiators - Summer Holiday
TTITLE16=Matt Finish (Live At PACT Theatre 1981) - CIA
TTITLE17=Kevin Borich Express - No Turning Back
TTITLE18=Stars - With A Winning Hand
TTITLE19=Dragon - Get That Jive
TTITLE20=Richard Clapton - Hearts On The Nightline
TTITLE21=Ian Moss - Tuckers Daughter
TTITLE22=The Black Sorrows - The Chosen Ones
TTITLE23=Moving Pictures - Winners
EXTD=
EXTT0=
EXTT1=
EXTT2=
EXTT3=
EXTT4=
EXTT5=
EXTT6=
EXTT7=
EXTT8=
EXTT9=
EXTT10=
EXTT11=
EXTT12=
EXTT13=
EXTT14=
EXTT15=
EXTT16=
EXTT17=
EXTT18=
EXTT19=
EXTT20=
EXTT21=
EXTT22=
EXTT23=
PLAYORDER=
